<?xml version="1.0" encoding="UTF-8"?>
<!DOCTYPE svg PUBLIC "-//W3C//DTD SVG 1.1//EN" "http://www.w3.org/Graphics/SVG/1.1/DTD/svg11.dtd">
<svg xmlns="http://www.w3.org/2000/svg" xmlns:xlink="http://www.w3.org/1999/xlink" version="1.1" width="534px" height="345px" viewBox="-0.5 -0.5 534 345"><defs><linearGradient x1="0%" y1="0%" x2="0%" y2="100%" id="mx-gradient-d5e8d4-1-97d077-1-s-0"><stop offset="0%" style="stop-color:#d5e8d4"/><stop offset="100%" style="stop-color:#97d077"/></linearGradient><style type="text/css">@import url(https://fonts.googleapis.com/css?family=avenir);&#xa;</style></defs><g><rect x="0" y="0" width="530" height="340" fill="none" stroke="#000000" transform="translate(2,3)" opacity="0.25"/><rect x="0" y="0" width="530" height="340" fill="none" stroke="#6c8ebf" pointer-events="all"/><path d="M 10 290 L 10 90" fill="none" stroke="#000000" stroke-width="4" stroke-miterlimit="10" pointer-events="stroke"/><path d="M 10 290 L 250 290" fill="none" stroke="#000000" stroke-width="4" stroke-miterlimit="10" pointer-events="stroke"/><rect x="177.5" y="180" width="167.5" height="12.5" rx="1.88" ry="1.88" fill="#000000" stroke="#000000" transform="translate(2,3)rotate(90,261.25,186.25)" opacity="0.25"/><rect x="177.5" y="180" width="167.5" height="12.5" rx="1.88" ry="1.88" fill="#dae8fc" stroke="#6c8ebf" transform="rotate(90,261.25,186.25)" pointer-events="all"/><ellipse cx="440" cy="125" rx="40" ry="40" fill="#000000" stroke="#000000" transform="translate(2,3)" opacity="0.25"/><ellipse cx="440" cy="125" rx="40" ry="40" fill="#dae8fc" stroke="#6c8ebf" pointer-events="all"/><rect x="410" y="200" width="60" height="42.5" rx="6.38" ry="6.38" fill="#000000" stroke="#000000" transform="translate(2,3)" opacity="0.25"/><rect x="410" y="200" width="60" height="42.5" rx="6.38" ry="6.38" fill="#dae8fc" stroke="#6c8ebf" pointer-events="all"/><rect x="480" y="115" width="15" height="15" rx="2.25" ry="2.25" fill="#000000" stroke="#000000" transform="translate(2,3)" opacity="0.25"/><rect x="480" y="115" width="15" height="15" rx="2.25" ry="2.25" fill="url(#mx-gradient-d5e8d4-1-97d077-1-s-0)" stroke="#82b366" pointer-events="all"/><rect x="432.5" y="70" width="15" height="15" rx="2.25" ry="2.25" fill="#000000" stroke="#000000" transform="translate(2,3)" opacity="0.25"/><rect x="432.5" y="70" width="15" height="15" rx="2.25" ry="2.25" fill="url(#mx-gradient-d5e8d4-1-97d077-1-s-0)" stroke="#82b366" pointer-events="all"/><rect x="432.5" y="165" width="15" height="15" rx="6" ry="6" fill="#000000" stroke="#000000" transform="translate(2,3)" opacity="0.25"/><rect x="432.5" y="165" width="15" height="15" rx="6" ry="6" fill="url(#mx-gradient-d5e8d4-1-97d077-1-s-0)" stroke="#82b366" pointer-events="all"/><rect x="470" y="213.75" width="15" height="15" rx="2.25" ry="2.25" fill="#000000" stroke="#000000" transform="translate(2,3)" opacity="0.25"/><rect x="470" y="213.75" width="15" height="15" rx="2.25" ry="2.25" fill="url(#mx-gradient-d5e8d4-1-97d077-1-s-0)" stroke="#82b366" pointer-events="all"/><rect x="395" y="213.75" width="15" height="15" rx="2.25" ry="2.25" fill="#000000" stroke="#000000" transform="translate(2,3)" opacity="0.25"/><rect x="395" y="213.75" width="15" height="15" rx="2.25" ry="2.25" fill="url(#mx-gradient-d5e8d4-1-97d077-1-s-0)" stroke="#82b366" pointer-events="all"/><rect x="-20" y="172.5" width="80" height="20" fill="none" stroke="none" transform="rotate(270,20,182.5)" pointer-events="all"/><g fill="#000000" font-family="Helvetica" text-anchor="middle" font-size="12px" transform="rotate(270,20,182.5)"><text x="19.5" y="187">White board</text></g><rect x="90" y="270" width="80" height="20" fill="none" stroke="none" pointer-events="all"/><g fill="#000000" font-family="Helvetica" text-anchor="middle" font-size="12px"><text x="129.5" y="284.5">White board</text></g><path d="M 290 330 L 367.5 330" fill="none" stroke="#000000" stroke-width="4" stroke-miterlimit="10" pointer-events="stroke"/><rect x="300" y="300" width="60" height="20" fill="none" stroke="none" pointer-events="all"/><g fill="#000000" font-family="Helvetica" text-anchor="middle" font-size="12px"><text x="329.5" y="314.5">Entrance</text></g><rect x="70" y="131.5" width="130" height="20" fill="none" stroke="none" pointer-events="all"/><g fill="#000000" font-family="Helvetica" font-weight="bold" text-anchor="middle" font-size="12px"><text x="134.5" y="146">Brainstorming Area!</text></g><path d="M 10 10 L 510 10" fill="none" stroke="#000000" stroke-width="4" stroke-miterlimit="10" pointer-events="stroke"/><rect x="367.5" y="20" width="80" height="20" fill="none" stroke="none" pointer-events="all"/><g fill="#000000" font-family="Helvetica" font-weight="bold" text-anchor="middle" font-size="12px"><text x="407" y="34.5">Window 2.0</text></g><rect x="60" y="20" width="80" height="20" fill="none" stroke="none" pointer-events="all"/><g fill="#000000" font-family="Helvetica" font-weight="bold" text-anchor="middle" font-size="12px"><text x="99.5" y="34.5">Window 1.0</text></g><rect x="385" y="117.5" width="15" height="15" rx="2.25" ry="2.25" fill="#000000" stroke="#000000" transform="translate(2,3)" opacity="0.25"/><rect x="385" y="117.5" width="15" height="15" rx="2.25" ry="2.25" fill="url(#mx-gradient-d5e8d4-1-97d077-1-s-0)" stroke="#82b366" pointer-events="all"/><image x="481.75" y="117" width="10.5" height="10.5" xlink:href="https://cdn3.iconfinder.com/data/icons/letters-and-numbers-1/32/number_1_blue-128.png" preserveAspectRatio="none"/><image x="432" y="69.5" width="15" height="15" xlink:href="https://cdn3.iconfinder.com/data/icons/letters-and-numbers-1/32/number_2_blue-128.png" preserveAspectRatio="none"/><image x="385" y="117" width="14" height="14" xlink:href="https://cdn3.iconfinder.com/data/icons/letters-and-numbers-1/32/number_3_blue-128.png" preserveAspectRatio="none"/><image x="433" y="165.5" width="13" height="13" xlink:href="https://cdn3.iconfinder.com/data/icons/letters-and-numbers-1/32/number_4_blue-128.png" preserveAspectRatio="none"/><image x="469.5" y="212.5" width="15.75" height="15.75" xlink:href="https://cdn3.iconfinder.com/data/icons/letters-and-numbers-1/32/number_5_blue-128.png" preserveAspectRatio="none"/><image x="394.75" y="213.5" width="14.75" height="14.75" xlink:href="https://cdn3.iconfinder.com/data/icons/letters-and-numbers-1/32/number_6_blue-128.png" preserveAspectRatio="none"/></g></svg>